<svg width="1025" height="432" viewBox="0 0 1025 432" fill="none" xmlns="http://www.w3.org/2000/svg">
<path d="M400 200C400 160.444 388.27 121.776 366.294 88.886C344.318 55.9961 313.082 30.3616 276.537 15.2241C239.991 0.0865667 199.778 -3.8741 160.982 3.84294C122.186 11.56 86.5491 30.6081 58.5786 58.5786C30.6081 86.5491 11.56 122.186 3.84294 160.982C-3.8741 199.778 0.0865672 239.991 15.2241 276.537C30.3616 313.082 55.9961 344.318 88.886 366.294C121.776 388.27 160.444 400 200 400L200 298.647C180.49 298.647 161.417 292.861 145.195 282.022C128.972 271.182 116.329 255.776 108.862 237.75C101.396 219.725 99.4424 199.891 103.249 180.755C107.055 161.619 116.45 144.042 130.246 130.246C144.042 116.45 161.619 107.055 180.755 103.249C199.891 99.4424 219.725 101.396 237.75 108.862C255.776 116.329 271.182 128.972 282.022 145.195C292.861 161.417 298.647 180.49 298.647 200H400Z" fill="#2ECC71"/>
<path d="M360.711 257.078C360.516 314.891 347.43 361.57 277.703 396.141L261.297 372.117C288.348 358.641 305.535 344.188 315.984 326.609L266.57 330.906L263.25 304.734L326.336 301.414C327.801 295.262 328.875 288.816 329.656 281.883H272.82V257.078H360.711ZM414.422 240.672V421.336H382.586V240.672H414.422ZM516.375 248.484C555.438 248.484 585.516 268.797 585.516 299.266C585.516 326.805 563.055 345.359 531.805 349.852V376.219H598.992V401.609H433.953V376.219H500.75V349.656C469.5 345.359 447.234 326.707 447.43 299.266C447.234 268.797 477.117 248.484 516.375 248.484ZM516.375 273.289C493.523 273.289 478.484 282.859 478.484 299.266C478.484 317.234 493.523 326.023 516.375 326.023C539.227 326.023 554.266 317.234 554.461 299.266C554.266 282.859 539.227 273.289 516.375 273.289ZM755.828 294.578V319.383H626.727V248.289H657.977V294.578H755.828ZM771.844 335.594V360.984H704.07V421.336H672.625V360.984H606.805V335.594H771.844ZM932.391 240.672V421.922H901.141V240.672H932.391ZM875.75 254.93V327.977H821.258V354.93C847.039 354.637 868.23 353.172 891.18 349.266L893.719 374.461C866.375 379.539 840.008 380.516 805.828 380.516H788.836V303.562H843.719V279.93H788.836V254.93H875.75Z" fill="black"/>
</svg>
